<?xml version="1.0" standalone="no"?>
<!DOCTYPE svg PUBLIC "-//W3C//DTD SVG 20010904//EN"
 "http://www.w3.org/TR/2001/REC-SVG-20010904/DTD/svg10.dtd">
<svg version="1.0" xmlns="http://www.w3.org/2000/svg"
 width="482.000000pt" height="482.000000pt" viewBox="0 0 482.000000 482.000000"
 preserveAspectRatio="xMidYMid meet">
<metadata>
Created by potrace 1.11, written by Peter Selinger 2001-2013
</metadata>
<g transform="translate(0.000000,482.000000) scale(0.100000,-0.100000)"
fill="#000000" stroke="none">
<path d="M2035 4431 c-38 -10 -92 -27 -119 -39 -27 -12 -54 -22 -61 -22 -19 0
-136 -93 -185 -147 -25 -28 -58 -72 -74 -98 -97 -158 -175 -447 -193 -712 l-6
-83 -71 0 c-88 -1 -281 -40 -321 -65 -138 -88 -180 -141 -241 -312 -55 -152
-63 -186 -86 -378 -30 -252 -33 -776 -5 -905 42 -192 90 -287 180 -358 34 -27
81 -59 104 -71 64 -32 185 -69 273 -83 92 -14 84 -1 95 -168 3 -52 12 -123 20
-158 8 -35 15 -75 15 -89 0 -39 89 -193 141 -243 25 -25 76 -60 112 -78 59
-29 82 -34 194 -44 268 -21 393 4 492 102 59 58 83 109 111 241 9 43 30 341
30 435 l0 41 48 -8 c26 -4 72 -10 103 -14 l57 -6 -1 -107 c-2 -200 42 -333
137 -419 80 -72 209 -122 316 -122 123 0 289 66 368 147 76 78 162 288 191
467 45 273 73 713 60 936 -5 79 -13 258 -18 398 l-9 254 38 56 c88 129 121
345 75 486 -7 22 -23 71 -34 108 -50 160 -129 265 -251 334 -40 22 -50 33 -55
63 -3 19 -38 99 -77 177 -62 122 -82 152 -147 220 -89 92 -193 151 -356 203
-55 17 -118 38 -141 46 -68 24 -197 34 -424 33 -169 0 -230 -4 -285 -18z"/>
</g>
</svg>
